<?xml version="1.0" encoding="UTF-8" standalone="no"?>
<!DOCTYPE svg PUBLIC "-//W3C//DTD SVG 1.1//EN"
 "http://www.w3.org/Graphics/SVG/1.1/DTD/svg11.dtd">
<!-- Generated by graphviz version 2.47.0 (20210316.0004)
 -->
<!-- Title: dependencies Pages: 1 -->
<svg width="504pt" height="352pt"
 viewBox="0.00 0.00 504.00 352.00" xmlns="http://www.w3.org/2000/svg" xmlns:xlink="http://www.w3.org/1999/xlink">
<g id="graph0" class="graph" transform="scale(1 1) rotate(0) translate(4 348)">
<title>dependencies</title>
<polygon fill="white" stroke="transparent" points="-4,4 -4,-348 500,-348 500,4 -4,4"/>
<text text-anchor="start" x="227.01" y="-42.4" font-family="Times-12" font-weight="bold" font-size="14.00">Legend</text>
<polygon fill="#ffffb3" stroke="transparent" points="14,-10 14,-30 34,-30 34,-10 14,-10"/>
<text text-anchor="start" x="37.63" y="-15.4" font-family="Times-12" font-size="14.00"> &#160;Declarations</text>
<polygon fill="#8dd3c7" stroke="transparent" points="127,-10 127,-30 147,-30 147,-10 127,-10"/>
<text text-anchor="start" x="150.73" y="-15.4" font-family="Times-12" font-size="14.00"> &#160;Module</text>
<polygon fill="#80b1d3" stroke="transparent" points="213,-10 213,-30 233,-30 233,-10 213,-10"/>
<text text-anchor="start" x="236.78" y="-15.4" font-family="Times-12" font-size="14.00"> &#160;Bootstrap</text>
<polygon fill="#fdb462" stroke="transparent" points="310,-10 310,-30 330,-30 330,-10 310,-10"/>
<text text-anchor="start" x="333.67" y="-15.4" font-family="Times-12" font-size="14.00"> &#160;Providers</text>
<polygon fill="#fb8072" stroke="transparent" points="406,-10 406,-30 426,-30 426,-10 406,-10"/>
<text text-anchor="start" x="429.73" y="-15.4" font-family="Times-12" font-size="14.00"> &#160;Exports</text>
<g id="clust1" class="cluster">
<title>cluster_AppModule</title>
<polygon fill="none" stroke="black" stroke-dasharray="1,5" points="261,-146 261,-336 413,-336 413,-146 261,-146"/>
</g>
<g id="clust3" class="cluster">
<title>cluster_AppModule_imports</title>
<polygon fill="none" stroke="black" points="269,-154 269,-271 395,-271 395,-154 269,-154"/>
</g>
<g id="clust7" class="cluster">
<title>cluster_CategoryModule</title>
<polygon fill="none" stroke="black" stroke-dasharray="1,5" points="241,-70 241,-138 423,-138 423,-70 241,-70"/>
</g>
<g id="clust12" class="cluster">
<title>cluster_CategoryModule_providers</title>
<polygon fill="none" stroke="black" points="249,-78 249,-130 415,-130 415,-78 249,-78"/>
</g>
<g id="clust13" class="cluster">
<title>cluster_ProductsModule</title>
<polygon fill="none" stroke="black" stroke-dasharray="1,5" points="73,-146 73,-214 253,-214 253,-146 73,-146"/>
</g>
<g id="clust18" class="cluster">
<title>cluster_ProductsModule_providers</title>
<polygon fill="none" stroke="black" points="81,-154 81,-206 245,-206 245,-154 81,-154"/>
</g>
<!-- CategoryModule -->
<g id="node1" class="node">
<title>CategoryModule</title>
<polygon fill="#8dd3c7" stroke="black" points="387.37,-198 384.37,-202 363.37,-202 360.37,-198 276.63,-198 276.63,-162 387.37,-162 387.37,-198"/>
<text text-anchor="middle" x="332" y="-175.8" font-family="Times,serif" font-size="14.00">CategoryModule</text>
</g>
<!-- ProductsModule -->
<g id="node2" class="node">
<title>ProductsModule</title>
<polygon fill="#8dd3c7" stroke="black" points="385.04,-263 382.04,-267 361.04,-267 358.04,-263 276.96,-263 276.96,-227 385.04,-227 385.04,-263"/>
<text text-anchor="middle" x="331" y="-240.8" font-family="Times,serif" font-size="14.00">ProductsModule</text>
</g>
<!-- CategoryModule&#45;&gt;ProductsModule -->
<g id="edge4" class="edge">
<title>CategoryModule&#45;&gt;ProductsModule</title>
<path fill="none" stroke="black" d="M331,-198.11C331,-198.11 331,-216.99 331,-216.99"/>
<polygon fill="black" stroke="black" points="327.5,-216.99 331,-226.99 334.5,-216.99 327.5,-216.99"/>
</g>
<!-- AppModule -->
<g id="node3" class="node">
<title>AppModule</title>
<polygon fill="#8dd3c7" stroke="black" points="388.66,-328 385.66,-332 364.66,-332 361.66,-328 305.34,-328 305.34,-292 388.66,-292 388.66,-328"/>
<text text-anchor="middle" x="347" y="-305.8" font-family="Times,serif" font-size="14.00">AppModule</text>
</g>
<!-- CategoryModule&#45;&gt;AppModule -->
<g id="edge1" class="edge">
<title>CategoryModule&#45;&gt;AppModule</title>
<path fill="none" stroke="black" d="M387.49,-180C393.85,-180 398.11,-180 398.11,-180 398.11,-180 398.11,-310 398.11,-310 398.11,-310 397.17,-310 397.17,-310"/>
<polygon fill="black" stroke="black" points="398.73,-306.5 388.73,-310 398.73,-313.5 398.73,-306.5"/>
</g>
<!-- ProductsModule&#45;&gt;AppModule -->
<g id="edge2" class="edge">
<title>ProductsModule&#45;&gt;AppModule</title>
<path fill="none" stroke="black" d="M345.22,-263.11C345.22,-263.11 345.22,-281.99 345.22,-281.99"/>
<polygon fill="black" stroke="black" points="341.72,-281.99 345.22,-291.99 348.72,-281.99 341.72,-281.99"/>
</g>
<!-- CategoryService -->
<g id="node4" class="node">
<title>CategoryService</title>
<ellipse fill="#fdb462" stroke="black" cx="332" cy="-104" rx="75.28" ry="18"/>
<text text-anchor="middle" x="332" y="-99.8" font-family="Times,serif" font-size="14.00">CategoryService</text>
</g>
<!-- CategoryService&#45;&gt;CategoryModule -->
<g id="edge3" class="edge">
<title>CategoryService&#45;&gt;CategoryModule</title>
<path fill="none" stroke="black" d="M332,-122.01C332,-122.01 332,-151.85 332,-151.85"/>
<polygon fill="black" stroke="black" points="328.5,-151.85 332,-161.85 335.5,-151.85 328.5,-151.85"/>
</g>
<!-- ProductsService -->
<g id="node5" class="node">
<title>ProductsService</title>
<ellipse fill="#fdb462" stroke="black" cx="163" cy="-180" rx="73.57" ry="18"/>
<text text-anchor="middle" x="163" y="-175.8" font-family="Times,serif" font-size="14.00">ProductsService</text>
</g>
<!-- ProductsService&#45;&gt;ProductsModule -->
<g id="edge5" class="edge">
<title>ProductsService&#45;&gt;ProductsModule</title>
<path fill="none" stroke="black" d="M163,-198.11C163,-217.34 163,-245 163,-245 163,-245 266.92,-245 266.92,-245"/>
<polygon fill="black" stroke="black" points="266.92,-248.5 276.92,-245 266.92,-241.5 266.92,-248.5"/>
</g>
</g>
</svg>
